<svg width="48" height="48" viewBox="0 0 48 48" fill="none" xmlns="http://www.w3.org/2000/svg">
<path d="M16.5 8.73633C18.8588 8.73633 21.1611 9.46211 23.0938 10.8145C25.026 12.1667 26.4956 14.0803 27.3037 16.2959C28.1118 18.5119 28.2196 20.9232 27.6113 23.2021C27.003 25.481 25.7082 27.5177 23.9033 29.0361L23.2959 29.5479L24.0186 29.875C26.9919 31.2205 29.5509 33.3376 31.4287 36.0068L31.4355 36.0166L31.4434 36.0264C31.5892 36.2132 31.6954 36.4281 31.7559 36.6572C31.8163 36.8865 31.8297 37.1259 31.7949 37.3604C31.7601 37.5948 31.678 37.8197 31.5537 38.0215C31.4293 38.2233 31.2651 38.3977 31.0713 38.5342C30.8774 38.6707 30.6577 38.7664 30.4258 38.8154C30.1939 38.8644 29.9541 38.8666 29.7217 38.8203C29.4893 38.774 29.2686 38.68 29.0732 38.5459C28.878 38.4118 28.7116 38.2393 28.585 38.0391L28.5791 38.0293L28.5723 38.0195L28.3115 37.6602C26.9841 35.8855 25.2725 34.4311 23.3027 33.4072C21.2016 32.3151 18.868 31.7451 16.5 31.7451C14.132 31.7451 11.7984 32.3151 9.69727 33.4072C7.59622 34.4993 5.78937 36.0816 4.42871 38.0195L4.42773 38.0205C4.26778 38.2502 4.05398 38.4382 3.80566 38.5674C3.55748 38.6965 3.28172 38.7634 3.00195 38.7627H2.99805C2.63919 38.7638 2.28903 38.652 1.99707 38.4434L1.99512 38.4424L1.8584 38.335C1.55464 38.0719 1.34865 37.7109 1.2793 37.3115C1.20008 36.855 1.30502 36.385 1.57129 36.0059C3.44908 33.3369 6.00835 31.2204 8.98145 29.875L9.7041 29.5479L9.09668 29.0361C7.29184 27.5177 5.99698 25.481 5.38867 23.2021C4.78039 20.9232 4.88817 18.5119 5.69629 16.2959C6.50447 14.08 7.97472 12.1667 9.90723 10.8145C11.8398 9.46213 14.1412 8.73635 16.5 8.73633ZM28.665 9.18359H28.666L28.6748 9.18164C29.6849 8.89409 30.7301 8.74828 31.7803 8.75H31.7832C34.1433 8.74323 36.448 9.46441 38.3838 10.8145C40.3197 12.1646 41.7925 14.0787 42.6016 16.2959C43.4106 18.513 43.5165 20.9255 42.9053 23.2051C42.294 25.4848 40.9954 27.5212 39.1855 29.0361L38.5752 29.5469L39.2998 29.875C42.2731 31.2205 44.8321 33.3376 46.71 36.0068L46.7119 36.0098C46.8454 36.1964 46.9402 36.4081 46.9912 36.6318C47.0422 36.8555 47.049 37.0875 47.0098 37.3135C46.9705 37.5394 46.8861 37.755 46.7627 37.9482C46.6392 38.1416 46.4786 38.3087 46.29 38.4395L46.2842 38.4434C45.9922 38.6521 45.6421 38.7628 45.2832 38.7617C45.0027 38.7599 44.7263 38.693 44.4775 38.5635C44.2908 38.4662 44.1239 38.336 43.9834 38.1807L43.8516 38.0176C42.4882 36.0836 40.681 34.5046 38.5811 33.4141C36.4807 32.3234 34.1489 31.7526 31.7822 31.75H31.7812C31.3173 31.75 30.8721 31.5663 30.5439 31.2383C30.2158 30.9101 30.0312 30.4641 30.0312 30C30.0314 29.536 30.2159 29.0908 30.5439 28.7627C30.8721 28.4346 31.3172 28.25 31.7812 28.25C33.903 28.25 35.9382 27.4075 37.4385 25.9072C38.9387 24.407 39.7812 22.3717 39.7812 20.25C39.7811 18.1285 38.9385 16.0939 37.4385 14.5938C35.9382 13.0935 33.903 12.25 31.7812 12.25C31.0501 12.2487 30.3223 12.3502 29.6191 12.5508L29.6133 12.5527C29.3909 12.619 29.1575 12.6399 28.9268 12.6152C28.6961 12.5905 28.4728 12.5201 28.2695 12.4082C28.0662 12.2963 27.8865 12.1456 27.7422 11.9639C27.5979 11.7821 27.4916 11.573 27.4287 11.3496C27.3658 11.1262 27.3477 10.8924 27.376 10.6621C27.4043 10.4317 27.4787 10.2094 27.5938 10.0078C27.7088 9.80628 27.8629 9.62972 28.0469 9.48828C28.2308 9.34692 28.4408 9.24299 28.665 9.18359ZM18.0605 12.4043C16.5088 12.0957 14.9002 12.2539 13.4385 12.8594C11.9768 13.4648 10.7276 14.4902 9.84863 15.8057C8.96966 17.1211 8.50008 18.6679 8.5 20.25C8.5 22.3716 9.34264 24.407 10.8428 25.9072C12.343 27.4075 14.3783 28.25 16.5 28.25C18.0821 28.25 19.6288 27.7813 20.9443 26.9023C22.2599 26.0233 23.2861 24.7733 23.8916 23.3115C24.4969 21.8498 24.6553 20.2411 24.3467 18.6895C24.038 17.1378 23.2759 15.7125 22.1572 14.5938C21.0384 13.4749 19.6124 12.713 18.0605 12.4043Z" fill="#4CAF4F" stroke="#4CAF4F"/>
</svg>
