<svg width="48" height="48" viewBox="0 0 48 48" fill="none" xmlns="http://www.w3.org/2000/svg">
<mask id="path-1-inside-1_556_2380" fill="white">
<path d="M28.3126 23.6441C28.0718 23.6441 27.8483 23.5779 27.6497 23.4715V23.4743C27.6497 23.8531 27.5024 24.2089 27.2352 24.4754C26.9681 24.7425 26.6126 24.8898 26.2342 24.8898C25.9899 24.8898 25.7634 24.8219 25.5627 24.7126C25.5424 25.0592 25.4039 25.3831 25.1568 25.6305C24.8896 25.8977 24.5341 26.0449 24.1555 26.0449C23.4032 26.0449 22.7923 25.4536 22.7482 24.7124C22.5155 24.8382 22.2523 24.9041 21.9809 24.8867C21.2408 24.8382 20.6613 24.1988 20.6613 23.4307V17.064L19.9363 18.32C19.6602 18.8004 19.1433 19.0986 18.5868 19.0986C18.3156 19.0986 18.0478 19.0275 17.8105 18.8916C17.5151 18.7203 17.3038 18.4453 17.2159 18.1164C17.1275 17.7873 17.1732 17.4431 17.344 17.1481C17.3443 17.1481 19.716 13.0409 19.8607 12.7886C19.8779 12.7507 19.9269 12.6406 19.9686 12.5469C20.0084 12.4573 20.0426 12.3655 20.0753 12.2731C20.7906 10.2538 22.5616 8.99949 24.6976 8.99949C27.4712 8.99949 29.7278 11.4464 29.7278 14.4541L29.728 22.2284C29.728 22.6068 29.581 22.9623 29.3141 23.2298C29.0469 23.4969 28.6914 23.6442 28.3126 23.6442L28.3126 23.6441ZM24.6976 9.75163C22.8623 9.75163 21.3994 10.7883 20.7843 12.5246C20.7449 12.6349 20.704 12.7452 20.6561 12.8526C20.5174 13.1638 20.5174 13.1638 20.4783 13.2086L20.4731 13.2041C20.2794 13.5695 19.7041 14.5659 17.9953 17.5245C17.9251 17.6458 17.9065 17.7867 17.9423 17.9215C17.9786 18.0563 18.0655 18.1698 18.1859 18.2393C18.5595 18.4539 19.0713 18.3154 19.2842 17.9443L20.7117 15.4729C20.797 15.3257 20.9695 15.2533 21.1349 15.2981C21.2993 15.3421 21.4136 15.4913 21.4136 15.6614V23.4309C21.4136 23.7975 21.6902 24.1139 22.0302 24.1363C22.2262 24.1466 22.409 24.0809 22.5464 23.9438C22.6712 23.8189 22.74 23.6526 22.74 23.4747V18.3933C22.74 18.1855 22.9085 18.0171 23.1163 18.0171C23.3241 18.0171 23.4925 18.1853 23.4925 18.3933L23.4923 24.6297C23.4923 24.9954 23.7898 25.2929 24.1555 25.2929C24.3331 25.2929 24.4999 25.2241 24.625 25.0992C24.7499 24.9741 24.8187 24.8073 24.8187 24.6297V18.3933C24.8187 18.1855 24.9869 18.0171 25.1949 18.0171C25.4027 18.0171 25.5712 18.1853 25.5712 18.3933L25.571 23.4163V23.4747C25.571 23.8401 25.8685 24.1377 26.2344 24.1377C26.4118 24.1377 26.5781 24.0686 26.704 23.9433C26.8288 23.8187 26.8976 23.6523 26.8976 23.4744V18.3931C26.8976 18.1853 27.0658 18.0168 27.2739 18.0168C27.4817 18.0168 27.6501 18.185 27.6501 18.3931L27.6496 22.2286C27.6496 22.5945 27.9472 22.8921 28.3126 22.8921C28.4905 22.8921 28.6568 22.823 28.7817 22.6984C28.907 22.5731 28.9756 22.4063 28.9756 22.2286L28.9758 14.4543C28.9758 11.8615 27.0566 9.75171 24.6976 9.75171L24.6976 9.75163Z"/>
</mask>
<path d="M28.3126 23.6441C28.0718 23.6441 27.8483 23.5779 27.6497 23.4715V23.4743C27.6497 23.8531 27.5024 24.2089 27.2352 24.4754C26.9681 24.7425 26.6126 24.8898 26.2342 24.8898C25.9899 24.8898 25.7634 24.8219 25.5627 24.7126C25.5424 25.0592 25.4039 25.3831 25.1568 25.6305C24.8896 25.8977 24.5341 26.0449 24.1555 26.0449C23.4032 26.0449 22.7923 25.4536 22.7482 24.7124C22.5155 24.8382 22.2523 24.9041 21.9809 24.8867C21.2408 24.8382 20.6613 24.1988 20.6613 23.4307V17.064L19.9363 18.32C19.6602 18.8004 19.1433 19.0986 18.5868 19.0986C18.3156 19.0986 18.0478 19.0275 17.8105 18.8916C17.5151 18.7203 17.3038 18.4453 17.2159 18.1164C17.1275 17.7873 17.1732 17.4431 17.344 17.1481C17.3443 17.1481 19.716 13.0409 19.8607 12.7886C19.8779 12.7507 19.9269 12.6406 19.9686 12.5469C20.0084 12.4573 20.0426 12.3655 20.0753 12.2731C20.7906 10.2538 22.5616 8.99949 24.6976 8.99949C27.4712 8.99949 29.7278 11.4464 29.7278 14.4541L29.728 22.2284C29.728 22.6068 29.581 22.9623 29.3141 23.2298C29.0469 23.4969 28.6914 23.6442 28.3126 23.6442L28.3126 23.6441ZM24.6976 9.75163C22.8623 9.75163 21.3994 10.7883 20.7843 12.5246C20.7449 12.6349 20.704 12.7452 20.6561 12.8526C20.5174 13.1638 20.5174 13.1638 20.4783 13.2086L20.4731 13.2041C20.2794 13.5695 19.7041 14.5659 17.9953 17.5245C17.9251 17.6458 17.9065 17.7867 17.9423 17.9215C17.9786 18.0563 18.0655 18.1698 18.1859 18.2393C18.5595 18.4539 19.0713 18.3154 19.2842 17.9443L20.7117 15.4729C20.797 15.3257 20.9695 15.2533 21.1349 15.2981C21.2993 15.3421 21.4136 15.4913 21.4136 15.6614V23.4309C21.4136 23.7975 21.6902 24.1139 22.0302 24.1363C22.2262 24.1466 22.409 24.0809 22.5464 23.9438C22.6712 23.8189 22.74 23.6526 22.74 23.4747V18.3933C22.74 18.1855 22.9085 18.0171 23.1163 18.0171C23.3241 18.0171 23.4925 18.1853 23.4925 18.3933L23.4923 24.6297C23.4923 24.9954 23.7898 25.2929 24.1555 25.2929C24.3331 25.2929 24.4999 25.2241 24.625 25.0992C24.7499 24.9741 24.8187 24.8073 24.8187 24.6297V18.3933C24.8187 18.1855 24.9869 18.0171 25.1949 18.0171C25.4027 18.0171 25.5712 18.1853 25.5712 18.3933L25.571 23.4163V23.4747C25.571 23.8401 25.8685 24.1377 26.2344 24.1377C26.4118 24.1377 26.5781 24.0686 26.704 23.9433C26.8288 23.8187 26.8976 23.6523 26.8976 23.4744V18.3931C26.8976 18.1853 27.0658 18.0168 27.2739 18.0168C27.4817 18.0168 27.6501 18.185 27.6501 18.3931L27.6496 22.2286C27.6496 22.5945 27.9472 22.8921 28.3126 22.8921C28.4905 22.8921 28.6568 22.823 28.7817 22.6984C28.907 22.5731 28.9756 22.4063 28.9756 22.2286L28.9758 14.4543C28.9758 11.8615 27.0566 9.75171 24.6976 9.75171L24.6976 9.75163Z" fill="#4CAF4F"/>
<path d="M28.3126 23.6441V22.3108H33.0233L29.0114 24.7797L28.3126 23.6441ZM27.6497 23.4715H26.3163V21.2436L28.2797 22.2964L27.6497 23.4715ZM27.2352 24.4754L26.2924 23.5325L26.2937 23.5313L27.2352 24.4754ZM25.5627 24.7126L24.2316 24.6348L24.3543 22.5363L26.2004 23.5416L25.5627 24.7126ZM25.1568 25.6305L26.1001 26.5728L26.0996 26.5733L25.1568 25.6305ZM22.7482 24.7124L22.1143 23.5394L23.9551 22.5445L24.0792 24.6333L22.7482 24.7124ZM21.9809 24.8867L21.8954 26.2173L21.8936 26.2172L21.9809 24.8867ZM20.6613 17.064L19.5065 16.3975L21.9946 12.087V17.064H20.6613ZM19.9363 18.32L18.7803 17.6556L18.7815 17.6534L19.9363 18.32ZM17.8105 18.8916L17.1476 20.0484L17.1418 20.0451L17.8105 18.8916ZM17.2159 18.1164L18.5036 17.7707L18.504 17.7722L17.2159 18.1164ZM17.344 17.1481L16.1902 16.48L16.5754 15.8147H17.344V17.1481ZM19.8607 12.7886L21.0751 13.3392L21.0489 13.3969L21.0173 13.4519L19.8607 12.7886ZM19.9686 12.5469L18.7503 12.0051L18.7503 12.0051L19.9686 12.5469ZM20.0753 12.2731L21.3322 12.7183L21.332 12.7186L20.0753 12.2731ZM29.7278 14.4541L28.3945 14.4541V14.4541H29.7278ZM29.728 22.2284L31.0614 22.2284V22.2284H29.728ZM29.3141 23.2298L30.2578 24.1717L30.2569 24.1726L29.3141 23.2298ZM28.3126 23.6442V24.9775H23.6019L27.6138 22.5086L28.3126 23.6442ZM24.6976 9.75163V8.4183H26.4652L25.9796 10.1179L24.6976 9.75163ZM20.7843 12.5246L22.0411 12.9699L22.0401 12.9728L20.7843 12.5246ZM20.6561 12.8526L21.8742 13.3949L21.8739 13.3956L20.6561 12.8526ZM20.4783 13.2086L21.4823 14.0859L20.6101 15.0842L19.6068 14.2177L20.4783 13.2086ZM20.4731 13.2041L19.295 12.5797L20.0784 11.1015L21.3446 12.195L20.4731 13.2041ZM17.9953 17.5245L19.1499 18.1914L19.1493 18.1923L17.9953 17.5245ZM17.9423 17.9215L16.6548 18.2681L16.6537 18.264L17.9423 17.9215ZM18.1859 18.2393L17.5218 19.3955L17.5193 19.3941L18.1859 18.2393ZM19.2842 17.9443L18.1278 17.2806L18.1297 17.2775L19.2842 17.9443ZM20.7117 15.4729L19.5572 14.806L19.558 14.8046L20.7117 15.4729ZM21.1349 15.2981L20.7898 16.586L20.7865 16.5851L21.1349 15.2981ZM22.0302 24.1363L21.9597 25.4677L21.9512 25.4673L21.9426 25.4667L22.0302 24.1363ZM22.5464 23.9438L23.4892 24.8866L23.4883 24.8874L22.5464 23.9438ZM23.4925 18.3933H24.8259V18.3934L23.4925 18.3933ZM23.4923 24.6297H22.159V24.6297L23.4923 24.6297ZM24.625 25.0992L25.5687 26.0412L25.5669 26.043L24.625 25.0992ZM25.5712 18.3933H26.9045V18.3934L25.5712 18.3933ZM25.571 23.4163H24.2376V23.4162L25.571 23.4163ZM26.704 23.9433L27.6459 24.887L27.645 24.8879L26.704 23.9433ZM27.6501 18.3931H28.9834V18.3932L27.6501 18.3931ZM27.6496 22.2286H26.3163V22.2285L27.6496 22.2286ZM28.7817 22.6984L29.7245 23.6412L29.7236 23.6421L28.7817 22.6984ZM28.9756 22.2286H27.6422V22.2286L28.9756 22.2286ZM28.9758 14.4543H30.3091V14.4543L28.9758 14.4543ZM24.6976 9.75171V11.085H22.9299L23.4155 9.38542L24.6976 9.75171ZM28.3126 24.9775C27.8217 24.9775 27.3833 24.8416 27.0196 24.6465L28.2797 22.2964C28.297 22.3056 28.3079 22.3091 28.3122 22.3103C28.316 22.3113 28.3155 22.3108 28.3126 22.3108V24.9775ZM28.983 23.4715V23.4743H26.3163V23.4715H28.983ZM28.983 23.4743C28.983 24.2056 28.696 24.9016 28.1768 25.4194L26.2937 23.5313C26.3032 23.5218 26.3079 23.5136 26.3107 23.507C26.3135 23.5003 26.3163 23.49 26.3163 23.4743H28.983ZM28.1781 25.4182C27.6606 25.9356 26.9659 26.2231 26.2342 26.2231V23.5564C26.2495 23.5564 26.2595 23.5537 26.2664 23.5508C26.2732 23.548 26.282 23.543 26.2924 23.5325L28.1781 25.4182ZM26.2342 26.2231C25.7368 26.2231 25.293 26.0839 24.925 25.8836L26.2004 23.5416C26.2177 23.5511 26.2287 23.5547 26.2331 23.5559C26.2369 23.5569 26.2365 23.5564 26.2342 23.5564V26.2231ZM26.8938 24.7904C26.8554 25.4467 26.5892 26.0832 26.1001 26.5728L24.2135 24.6882C24.2184 24.6832 24.2213 24.6789 24.2237 24.6734C24.2263 24.6674 24.2305 24.6551 24.2316 24.6348L26.8938 24.7904ZM26.0996 26.5733C25.5821 27.0908 24.8873 27.3783 24.1555 27.3783V24.7116C24.171 24.7116 24.1811 24.7088 24.1879 24.706C24.1948 24.7031 24.2036 24.6981 24.214 24.6877L26.0996 26.5733ZM24.1555 27.3783C22.6835 27.3783 21.5023 26.223 21.4172 24.7914L24.0792 24.6333C24.0806 24.656 24.0898 24.6759 24.1063 24.6915C24.1143 24.6992 24.1224 24.7041 24.1294 24.707C24.1357 24.7095 24.1435 24.7116 24.1555 24.7116V27.3783ZM23.3822 25.8853C22.9515 26.1181 22.4409 26.2523 21.8954 26.2173L22.0663 23.5561C22.0664 23.5561 22.0692 23.5564 22.0762 23.5548C22.0838 23.553 22.0968 23.5488 22.1143 23.5394L23.3822 25.8853ZM21.8936 26.2172C20.4132 26.1201 19.3279 24.8611 19.3279 23.4307H21.9946C21.9946 23.4758 22.011 23.5105 22.0315 23.5331C22.0515 23.5552 22.0651 23.556 22.0681 23.5562L21.8936 26.2172ZM19.3279 23.4307V17.064H21.9946V23.4307H19.3279ZM21.816 17.7306L21.0911 18.9866L18.7815 17.6534L19.5065 16.3975L21.816 17.7306ZM21.0923 18.9844C20.5771 19.8808 19.6181 20.432 18.5868 20.432V17.7653C18.6686 17.7653 18.7433 17.72 18.7803 17.6556L21.0923 18.9844ZM18.5868 20.432C18.0826 20.432 17.5863 20.2998 17.1476 20.0484L18.4734 17.7347C18.5093 17.7552 18.5487 17.7653 18.5868 17.7653V20.432ZM17.1418 20.0451C16.5432 19.698 16.1074 19.1332 15.9277 18.4606L18.504 17.7722C18.5028 17.7677 18.4995 17.7596 18.4931 17.7513C18.4867 17.743 18.4808 17.7389 18.4793 17.738L17.1418 20.0451ZM15.9281 18.4621C15.7477 17.7899 15.8422 17.081 16.1902 16.48L18.4979 17.8162C18.4998 17.8129 18.5031 17.8053 18.5046 17.7945C18.506 17.7837 18.5048 17.7751 18.5036 17.7707L15.9281 18.4621ZM17.344 15.8147C16.69 15.9862 16.2004 16.4626 16.1968 16.4687C16.1956 16.4708 16.1937 16.4738 16.1932 16.4748C16.1928 16.4754 16.1923 16.4764 16.1921 16.4767C16.192 16.4769 16.1917 16.4773 16.1916 16.4774C16.1915 16.4777 16.1915 16.4776 16.192 16.4768C16.1929 16.4752 16.1944 16.4726 16.1967 16.4688C16.201 16.4612 16.2076 16.4498 16.2163 16.4348C16.2337 16.4047 16.2592 16.3606 16.2918 16.3042C16.3569 16.1914 16.4501 16.0301 16.5624 15.8356C16.787 15.4466 17.088 14.9254 17.3935 14.3963C18.0056 13.3362 18.633 12.2492 18.7041 12.1253L21.0173 13.4519C20.9437 13.5803 20.313 14.673 19.7029 15.7296C19.3973 16.2588 19.0963 16.7802 18.8716 17.1692C18.7593 17.3637 18.6661 17.5252 18.6009 17.638C18.5683 17.6944 18.5427 17.7388 18.5252 17.769C18.5165 17.7841 18.5097 17.7958 18.5051 17.8038C18.5028 17.8078 18.5009 17.811 18.4995 17.8134C18.4989 17.8145 18.4981 17.8159 18.4973 17.8172C18.497 17.8177 18.4962 17.8192 18.4951 17.821C18.4945 17.8221 18.4926 17.8253 18.4914 17.8274C18.4877 17.8336 17.9981 18.31 17.344 18.4814V15.8147ZM18.6464 12.238C18.6611 12.2056 18.7076 12.1013 18.7503 12.0051L21.1869 13.0887C21.1463 13.18 21.0948 13.2957 21.0751 13.3392L18.6464 12.238ZM18.7503 12.0051C18.7689 11.9634 18.7894 11.9102 18.8187 11.8276L21.332 12.7186C21.2958 12.8208 21.248 12.9513 21.1869 13.0887L18.7503 12.0051ZM18.8185 11.8279C19.7216 9.27845 21.9946 7.66616 24.6976 7.66616V10.3328C23.1287 10.3328 21.8596 11.2292 21.3322 12.7183L18.8185 11.8279ZM24.6976 7.66616C28.3072 7.66616 31.0611 10.8137 31.0611 14.4541H28.3945C28.3945 12.079 26.6352 10.3328 24.6976 10.3328V7.66616ZM31.0611 14.454L31.0614 22.2284L28.3947 22.2285L28.3945 14.4541L31.0611 14.454ZM31.0614 22.2284C31.0614 22.9596 30.7745 23.654 30.2578 24.1717L28.3704 22.2878C28.3809 22.2773 28.3861 22.2683 28.389 22.2613C28.3919 22.2543 28.3947 22.244 28.3947 22.2284H31.0614ZM30.2569 24.1726C29.7393 24.6901 29.0445 24.9775 28.3126 24.9775V22.3108C28.3283 22.3108 28.3385 22.308 28.3453 22.3052C28.3521 22.3024 28.3609 22.2973 28.3713 22.2869L30.2569 24.1726ZM27.6138 22.5086L27.6138 22.5086L29.0114 24.7797L29.0114 24.7797L27.6138 22.5086ZM24.6976 11.085C23.4299 11.085 22.4686 11.7631 22.0411 12.9699L19.5275 12.0794C20.3302 9.81347 22.2946 8.4183 24.6976 8.4183V11.085ZM22.0401 12.9728C21.998 13.0907 21.9433 13.2397 21.8742 13.3949L19.438 12.3103C19.4646 12.2507 19.4919 12.1791 19.5285 12.0765L22.0401 12.9728ZM21.8739 13.3956C21.8128 13.5325 21.7617 13.6482 21.7225 13.7265C21.6982 13.7751 21.6589 13.85 21.6019 13.933C21.5441 14.0171 21.487 14.0806 21.4823 14.0859L19.4742 12.3313C19.4773 12.3277 19.4763 12.3289 19.4747 12.3307C19.4727 12.3331 19.4675 12.3391 19.4607 12.3474C19.4537 12.356 19.4448 12.3671 19.4348 12.3803C19.4247 12.3936 19.4144 12.4077 19.4042 12.4227C19.3833 12.453 19.3672 12.4797 19.3558 12.4998C19.3451 12.5186 19.3386 12.5316 19.3371 12.5345C19.3356 12.5376 19.3365 12.5358 19.3411 12.5261C19.3454 12.5167 19.3517 12.5031 19.3606 12.4834C19.3694 12.4639 19.38 12.4403 19.393 12.4112C19.4061 12.3821 19.4209 12.3487 19.4384 12.3096L21.8739 13.3956ZM19.6068 14.2177L19.6016 14.2132L21.3446 12.195L21.3497 12.1995L19.6068 14.2177ZM21.6512 13.8285C21.4425 14.2222 20.8468 15.2533 19.1499 18.1914L16.8407 16.8577C18.5614 13.8784 19.1163 12.9168 19.295 12.5797L21.6512 13.8285ZM19.1493 18.1923C19.256 18.0079 19.2858 17.7855 19.2309 17.579L16.6537 18.264C16.5272 17.788 16.5941 17.2837 16.8412 16.8567L19.1493 18.1923ZM19.2298 17.5749C19.1749 17.3711 19.0401 17.1929 18.8525 17.0846L17.5193 19.3941C17.0909 19.1468 16.7822 18.7414 16.6548 18.2681L19.2298 17.5749ZM18.85 17.0831C18.6982 16.996 18.5506 16.9965 18.4487 17.024C18.3472 17.0513 18.217 17.1254 18.1278 17.2806L20.4407 18.608C19.8596 19.6205 18.5315 19.9755 17.5218 19.3955L18.85 17.0831ZM18.1297 17.2775L19.5572 14.806L21.8663 16.1398L20.4388 18.6112L18.1297 17.2775ZM19.558 14.8046C19.9431 14.1397 20.7292 13.807 21.4832 14.0111L20.7865 16.5851C21.2098 16.6997 21.651 16.5116 21.8655 16.1412L19.558 14.8046ZM21.4799 14.0102C22.2279 14.2106 22.7469 14.8884 22.7469 15.6614H20.0803C20.0803 16.0941 20.3707 16.4737 20.7898 16.586L21.4799 14.0102ZM22.7469 15.6614V23.4309H20.0803V15.6614H22.7469ZM22.7469 23.4309C22.7469 23.279 22.6906 23.1408 22.5982 23.0351C22.506 22.9296 22.3432 22.8207 22.1177 22.8058L21.9426 25.4667C20.8202 25.3929 20.0803 24.4151 20.0803 23.4309H22.7469ZM22.1006 22.8048C21.9431 22.7965 21.7506 22.8542 21.6044 23.0002L23.4883 24.8874C23.0674 25.3076 22.5093 25.4968 21.9597 25.4677L22.1006 22.8048ZM21.6035 23.001C21.477 23.1275 21.4067 23.3009 21.4067 23.4747H24.0734C24.0734 24.0043 23.8654 24.5103 23.4892 24.8866L21.6035 23.001ZM21.4067 23.4747V18.3933H24.0734V23.4747H21.4067ZM21.4067 18.3933C21.4067 17.4492 22.1721 16.6838 23.1163 16.6838V19.3504C23.6449 19.3504 24.0734 18.9219 24.0734 18.3933H21.4067ZM23.1163 16.6838C24.0599 16.6838 24.8259 17.4484 24.8259 18.3933H22.1592C22.1592 18.9222 22.5882 19.3504 23.1163 19.3504V16.6838ZM24.8259 18.3934L24.8256 24.6298L22.159 24.6297L22.1592 18.3933L24.8259 18.3934ZM24.8256 24.6297C24.8256 24.259 24.5262 23.9596 24.1555 23.9596V26.6262C23.0535 26.6262 22.159 25.7317 22.159 24.6297H24.8256ZM24.1555 23.9596C23.9819 23.9596 23.8094 24.0295 23.6831 24.1555L25.5669 26.043C25.1904 26.4187 24.6843 26.6262 24.1555 26.6262V23.9596ZM23.6813 24.1573C23.5553 24.2836 23.4854 24.4562 23.4854 24.6297H26.152C26.152 25.1585 25.9445 25.6647 25.5687 26.0412L23.6813 24.1573ZM23.4854 24.6297V18.3933H26.152V24.6297H23.4854ZM23.4854 18.3933C23.4854 17.4497 24.25 16.6837 25.1949 16.6837V19.3504C25.7238 19.3504 26.152 18.9214 26.152 18.3933H23.4854ZM25.1949 16.6837C26.1386 16.6837 26.9045 17.4484 26.9045 18.3933H24.2379C24.2379 18.9222 24.6669 19.3504 25.1949 19.3504V16.6837ZM26.9045 18.3934L26.9043 23.4163L24.2376 23.4162L24.2379 18.3933L26.9045 18.3934ZM26.9043 23.4163V23.4747H24.2376V23.4163H26.9043ZM26.9043 23.4747C26.9043 23.1031 26.6042 22.8043 26.2344 22.8043V25.471C25.1328 25.471 24.2376 24.5771 24.2376 23.4747H26.9043ZM26.2344 22.8043C26.0572 22.8043 25.8857 22.8764 25.7629 22.9987L27.645 24.8879C27.2706 25.2609 26.7664 25.471 26.2344 25.471V22.8043ZM25.762 22.9996C25.6345 23.1269 25.5643 23.3008 25.5643 23.4744H28.2309C28.2309 24.0038 28.0231 24.5104 27.6459 24.887L25.762 22.9996ZM25.5643 23.4744V18.3931H28.2309V23.4744H25.5643ZM25.5643 18.3931C25.5643 17.4494 26.3289 16.6835 27.2739 16.6835V19.3502C27.8027 19.3502 28.2309 18.9211 28.2309 18.3931H25.5643ZM27.2739 16.6835C28.2175 16.6835 28.9834 17.4481 28.9834 18.3931H26.3168C26.3168 18.922 26.7458 19.3502 27.2739 19.3502V16.6835ZM28.9834 18.3932L28.983 22.2288L26.3163 22.2285L26.3168 18.3929L28.9834 18.3932ZM28.983 22.2286C28.983 21.8588 28.6842 21.5587 28.3126 21.5587V24.2254C27.2102 24.2254 26.3163 23.3302 26.3163 22.2286H28.983ZM28.3126 21.5587C28.1377 21.5587 27.9652 21.6295 27.8398 21.7547L29.7236 23.6421C29.3485 24.0165 28.8433 24.2254 28.3126 24.2254V21.5587ZM27.8389 21.7556C27.7119 21.8826 27.6422 22.0558 27.6422 22.2286H30.3089C30.3089 22.7567 30.1021 23.2636 29.7245 23.6412L27.8389 21.7556ZM27.6422 22.2286L27.6425 14.4542L30.3091 14.4543L30.3089 22.2287L27.6422 22.2286ZM27.6425 14.4543C27.6425 12.4764 26.2044 11.085 24.6976 11.085V8.41838C27.9089 8.41838 30.3091 11.2467 30.3091 14.4543H27.6425ZM23.4155 9.38542L23.4156 9.38534L25.9796 10.1179L25.9796 10.118L23.4155 9.38542Z" fill="#4CAF4F" mask="url(#path-1-inside-1_556_2380)"/>
<path d="M11.9639 26.2139L11.8887 26.1738C11.8712 26.2054 11.8212 26.2939 11.748 26.4258C11.7741 26.4388 11.7999 26.451 11.8262 26.4609C11.8711 26.3801 11.9172 26.2979 11.9639 26.2139Z" fill="#4CAF4F" stroke="#4CAF4F" stroke-width="1.33333"/>
<path d="M27.8262 28.0762L27.8281 28.0771C27.8305 28.0788 27.8325 28.0813 27.835 28.083C27.8318 28.0809 27.8291 28.0783 27.8262 28.0762Z" fill="#4CAF4F" stroke="#4CAF4F" stroke-width="1.33333"/>
</svg>
