<svg width="48" height="48" viewBox="0 0 48 48" fill="none" xmlns="http://www.w3.org/2000/svg">
<path d="M9.75 8H38.25C39.9076 8 41.4968 8.65895 42.6689 9.83105C43.841 11.0032 44.5 12.5924 44.5 14.25V33.75C44.5 35.4076 43.841 36.9968 42.6689 38.1689C41.4968 39.341 39.9076 40 38.25 40H9.75C8.0924 40 6.50316 39.341 5.33105 38.1689C4.15895 36.9968 3.5 35.4076 3.5 33.75V14.25C3.5 12.5924 4.15895 11.0032 5.33105 9.83105C6.50316 8.65895 8.0924 8 9.75 8ZM5.5 33.75C5.5 34.8772 5.94809 35.9579 6.74512 36.7549C7.54215 37.5519 8.62283 38 9.75 38H38.25C39.3772 38 40.4579 37.5519 41.2549 36.7549C42.0519 35.9579 42.5 34.8772 42.5 33.75V19H5.5V33.75ZM31.5 29H36C36.2652 29 36.5195 29.1054 36.707 29.293C36.8946 29.4805 37 29.7348 37 30C37 30.2652 36.8946 30.5195 36.707 30.707C36.5195 30.8946 36.2652 31 36 31H31.5C31.2348 31 30.9805 30.8946 30.793 30.707C30.6054 30.5195 30.5 30.2652 30.5 30C30.5 29.7348 30.6054 29.4805 30.793 29.293C30.9805 29.1054 31.2348 29 31.5 29ZM9.75 10C8.62283 10 7.54215 10.4481 6.74512 11.2451C5.94809 12.0421 5.5 13.1228 5.5 14.25V17H42.5V14.25C42.5 13.1228 42.0519 12.0421 41.2549 11.2451C40.4579 10.4481 39.3772 10 38.25 10H9.75Z" fill="#4CAF4F" stroke="#4CAF4F"/>
</svg>
